<svg width="114" height="26" viewBox="0 0 114 26" fill="none" xmlns="http://www.w3.org/2000/svg">
<g clip-path="url(#clip0_2303_15718)">
<path fill-rule="evenodd" clip-rule="evenodd" d="M12.0007 24.274C14.7284 24.2756 17.3638 23.2861 19.4164 21.4897C21.469 19.6932 22.799 17.2122 23.1589 14.5084C23.5188 11.8045 22.8841 9.062 21.3728 6.79119C19.8616 4.52039 17.5768 2.87598 14.9437 2.164C15.0079 1.94058 15.0192 1.70531 14.9769 1.47675C14.9345 1.2482 14.8396 1.03261 14.6997 0.846999C14.5598 0.661391 14.3786 0.510844 14.1705 0.407239C13.9625 0.303633 13.7331 0.249805 13.5007 0.250001H10.5007C10.2683 0.249805 10.0389 0.303633 9.83086 0.407239C9.62278 0.510844 9.44162 0.661391 9.30169 0.846999C9.16176 1.03261 9.06687 1.2482 9.02453 1.47675C8.98219 1.70531 8.99354 1.94058 9.0577 2.164C6.42456 2.87598 4.13978 4.52039 2.62856 6.79119C1.11734 9.062 0.482622 11.8045 0.842524 14.5084C1.20243 17.2122 2.53243 19.6932 4.58503 21.4897C6.63763 23.2861 9.273 24.2756 12.0007 24.274ZM21.7507 13.024C21.7507 15.6099 20.7235 18.0898 18.895 19.9183C17.0665 21.7468 14.5866 22.774 12.0007 22.774C9.41484 22.774 6.93489 21.7468 5.10641 19.9183C3.27793 18.0898 2.2507 15.6099 2.2507 13.024C2.2507 10.4381 3.27793 7.95819 5.10641 6.12971C6.93489 4.30123 9.41484 3.274 12.0007 3.274C14.5866 3.274 17.0665 4.30123 18.895 6.12971C20.7235 7.95819 21.7507 10.4381 21.7507 13.024Z" fill="black"/>
<path d="M10.4105 11.4102L17.8355 7.16516L13.5905 14.5902L6.16699 18.8352L10.409 11.4102H10.4105Z" fill="black"/>
</g>
<path d="M28.5223 10.6953C28.5223 10.1159 28.6329 9.57227 28.8543 9.06445C29.0757 8.55664 29.3751 8.11393 29.7527 7.73633C30.1368 7.35221 30.5828 7.04948 31.0906 6.82812C31.5984 6.60677 32.1421 6.49609 32.7215 6.49609H39.1473V9.29883H32.7215C32.5262 9.29883 32.3439 9.33464 32.1746 9.40625C32.0053 9.47786 31.8556 9.57878 31.7254 9.70898C31.6017 9.83268 31.504 9.97917 31.4324 10.1484C31.3608 10.3177 31.325 10.5 31.325 10.6953C31.325 10.8906 31.3608 11.0762 31.4324 11.252C31.504 11.4212 31.6017 11.571 31.7254 11.7012C31.8556 11.8249 32.0053 11.9225 32.1746 11.9941C32.3439 12.0658 32.5262 12.1016 32.7215 12.1016H35.5242C36.1036 12.1016 36.6473 12.2122 37.1551 12.4336C37.6694 12.6484 38.1154 12.9479 38.493 13.332C38.8771 13.7096 39.1766 14.1556 39.3914 14.6699C39.6128 15.1777 39.7234 15.7214 39.7234 16.3008C39.7234 16.8802 39.6128 17.4238 39.3914 17.9316C39.1766 18.4395 38.8771 18.8854 38.493 19.2695C38.1154 19.6471 37.6694 19.9466 37.1551 20.168C36.6473 20.3893 36.1036 20.5 35.5242 20.5H29.3035V17.6973H35.5242C35.7195 17.6973 35.9018 17.6615 36.0711 17.5898C36.2404 17.5182 36.3868 17.4206 36.5105 17.2969C36.6408 17.1667 36.7417 17.0169 36.8133 16.8477C36.8849 16.6784 36.9207 16.4961 36.9207 16.3008C36.9207 16.1055 36.8849 15.9232 36.8133 15.7539C36.7417 15.5846 36.6408 15.4382 36.5105 15.3145C36.3868 15.1842 36.2404 15.0833 36.0711 15.0117C35.9018 14.9401 35.7195 14.9043 35.5242 14.9043H32.7215C32.1421 14.9043 31.5984 14.7936 31.0906 14.5723C30.5828 14.3509 30.1368 14.0514 29.7527 13.6738C29.3751 13.2897 29.0757 12.8438 28.8543 12.3359C28.6329 11.8216 28.5223 11.2747 28.5223 10.6953ZM52.7141 14.9043C52.7141 15.679 52.5676 16.4082 52.2746 17.0918C51.9816 17.7689 51.5813 18.3613 51.0734 18.8691C50.5656 19.3704 49.9699 19.7676 49.2863 20.0605C48.6092 20.3535 47.8833 20.5 47.1086 20.5C46.3339 20.5 45.6047 20.3535 44.9211 20.0605C44.244 19.7676 43.6516 19.3704 43.1438 18.8691C42.6424 18.3613 42.2453 17.7689 41.9523 17.0918C41.6594 16.4082 41.5129 15.679 41.5129 14.9043V6.49609H44.3059V14.9043C44.3059 15.2884 44.3775 15.6497 44.5207 15.9883C44.6704 16.3268 44.8723 16.623 45.1262 16.877C45.3801 17.1309 45.6763 17.3327 46.0148 17.4824C46.3599 17.6257 46.7245 17.6973 47.1086 17.6973C47.4927 17.6973 47.854 17.6257 48.1926 17.4824C48.5376 17.3327 48.8371 17.1309 49.091 16.877C49.3449 16.623 49.5435 16.3268 49.6867 15.9883C49.8365 15.6497 49.9113 15.2884 49.9113 14.9043V6.49609H52.7141V14.9043ZM58.0484 9.29883V14.9043H60.8512C61.2353 14.9043 61.5966 14.8327 61.9352 14.6895C62.2737 14.5397 62.5699 14.3379 62.8238 14.084C63.0777 13.8301 63.2763 13.5339 63.4195 13.1953C63.5693 12.8503 63.6441 12.4857 63.6441 12.1016C63.6441 11.7174 63.5693 11.3561 63.4195 11.0176C63.2763 10.6725 63.0777 10.373 62.8238 10.1191C62.5699 9.86523 62.2737 9.66667 61.9352 9.52344C61.5966 9.3737 61.2353 9.29883 60.8512 9.29883H58.0484ZM58.0484 20.5H55.2457V6.49609H60.8512C61.3655 6.49609 61.8603 6.56445 62.3355 6.70117C62.8108 6.83138 63.2535 7.02018 63.6637 7.26758C64.0803 7.50846 64.4579 7.80143 64.7965 8.14648C65.1415 8.48503 65.4345 8.86263 65.6754 9.2793C65.9228 9.69596 66.1116 10.1419 66.2418 10.6172C66.3785 11.0924 66.4469 11.5872 66.4469 12.1016C66.4469 12.5833 66.385 13.0521 66.2613 13.5078C66.1441 13.9635 65.9716 14.3965 65.7438 14.8066C65.5224 15.2168 65.249 15.5944 64.9234 15.9395C64.5979 16.2845 64.2333 16.584 63.8297 16.8379L65.3824 20.5H62.4039L61.1832 17.6777L58.0484 17.6973V20.5ZM77.9922 20.5H68.3926V6.49609H77.9922V9.29883H71.1953V12.1016H75.7949V14.9043H71.1953V17.6973H77.9922V20.5ZM79.0785 10.6953C79.0785 10.1159 79.1892 9.57227 79.4105 9.06445C79.6319 8.55664 79.9314 8.11393 80.309 7.73633C80.6931 7.35221 81.1391 7.04948 81.6469 6.82812C82.1547 6.60677 82.6983 6.49609 83.2777 6.49609H89.7035V9.29883H83.2777C83.0824 9.29883 82.9001 9.33464 82.7309 9.40625C82.5616 9.47786 82.4119 9.57878 82.2816 9.70898C82.1579 9.83268 82.0603 9.97917 81.9887 10.1484C81.9171 10.3177 81.8813 10.5 81.8813 10.6953C81.8813 10.8906 81.9171 11.0762 81.9887 11.252C82.0603 11.4212 82.1579 11.571 82.2816 11.7012C82.4119 11.8249 82.5616 11.9225 82.7309 11.9941C82.9001 12.0658 83.0824 12.1016 83.2777 12.1016H86.0805C86.6599 12.1016 87.2035 12.2122 87.7113 12.4336C88.2257 12.6484 88.6716 12.9479 89.0492 13.332C89.4333 13.7096 89.7328 14.1556 89.9477 14.6699C90.169 15.1777 90.2797 15.7214 90.2797 16.3008C90.2797 16.8802 90.169 17.4238 89.9477 17.9316C89.7328 18.4395 89.4333 18.8854 89.0492 19.2695C88.6716 19.6471 88.2257 19.9466 87.7113 20.168C87.2035 20.3893 86.6599 20.5 86.0805 20.5H79.8598V17.6973H86.0805C86.2758 17.6973 86.4581 17.6615 86.6273 17.5898C86.7966 17.5182 86.9431 17.4206 87.0668 17.2969C87.197 17.1667 87.2979 17.0169 87.3695 16.8477C87.4411 16.6784 87.477 16.4961 87.477 16.3008C87.477 16.1055 87.4411 15.9232 87.3695 15.7539C87.2979 15.5846 87.197 15.4382 87.0668 15.3145C86.9431 15.1842 86.7966 15.0833 86.6273 15.0117C86.4581 14.9401 86.2758 14.9043 86.0805 14.9043H83.2777C82.6983 14.9043 82.1547 14.7936 81.6469 14.5723C81.1391 14.3509 80.6931 14.0514 80.309 13.6738C79.9314 13.2897 79.6319 12.8438 79.4105 12.3359C79.1892 11.8216 79.0785 11.2747 79.0785 10.6953ZM97.909 20.5H95.116V9.29883H90.907V6.49609H102.108V9.29883H97.909V20.5ZM113.292 20.5H103.693V6.49609H113.292V9.29883H106.495V12.1016H111.095V14.9043H106.495V17.6973H113.292V20.5Z" fill="black"/>
<defs>
<clipPath id="clip0_2303_15718">
<rect width="24" height="25.5" fill="white" transform="translate(0 0.25)"/>
</clipPath>
</defs>
</svg>
