<svg width="24" height="26" viewBox="0 0 24 26" fill="none" xmlns="http://www.w3.org/2000/svg">
<g clip-path="url(#clip0_2303_15659)">
<path d="M12 26.0007C12.7956 26.0007 13.5587 25.6582 14.1213 25.0487C14.6839 24.4392 15 23.6125 15 22.7505H9C9 23.6125 9.31607 24.4392 9.87868 25.0487C10.4413 25.6582 11.2044 26.0007 12 26.0007Z" fill="#333333"/>
<path fill-rule="evenodd" clip-rule="evenodd" d="M12 3.1162L10.8045 3.37784C9.44844 3.67718 8.2295 4.47493 7.35398 5.63609C6.47846 6.79724 6.00015 8.25046 6 9.74979C6 10.7703 5.799 13.3201 5.3115 15.8309C5.0715 17.0773 4.7475 18.3757 4.317 19.5003H19.683C19.2525 18.3757 18.93 17.0789 18.6885 15.8309C18.201 13.3201 18 10.7703 18 9.74979C17.9995 8.25074 17.521 6.7979 16.6455 5.63708C15.7701 4.47626 14.5513 3.67874 13.1955 3.37946L12 3.11457V3.1162ZM21.33 19.5003C21.6645 20.2267 22.0515 20.802 22.5 21.1254H1.5C1.9485 20.802 2.3355 20.2267 2.67 19.5003C4.02 16.5751 4.5 11.1799 4.5 9.74979C4.5 5.81709 7.08 2.53442 10.5075 1.78525C10.4866 1.55929 10.5096 1.33108 10.5751 1.11535C10.6405 0.899615 10.747 0.701143 10.8876 0.532732C11.0283 0.364322 11.1999 0.229714 11.3915 0.137588C11.5831 0.0454616 11.7904 -0.00213623 12 -0.00213623C12.2096 -0.00213623 12.4169 0.0454616 12.6085 0.137588C12.8001 0.229714 12.9717 0.364322 13.1124 0.532732C13.253 0.701143 13.3595 0.899615 13.4249 1.11535C13.4904 1.33108 13.5134 1.55929 13.4925 1.78525C15.1879 2.15886 16.7121 3.15578 17.8069 4.60721C18.9016 6.05864 19.4998 7.87538 19.5 9.74979C19.5 11.1799 19.98 16.5751 21.33 19.5003Z" fill="#333333"/>
</g>
<defs>
<clipPath id="clip0_2303_15659">
<rect width="24" height="26.0013" fill="white" transform="translate(0 -0.000671387)"/>
</clipPath>
</defs>
</svg>
