<svg width="24" height="26" viewBox="0 0 24 26" fill="none" xmlns="http://www.w3.org/2000/svg">
<path fill-rule="evenodd" clip-rule="evenodd" d="M3.75 18.6878C3.75 18.4723 3.82902 18.2656 3.96967 18.1132C4.11032 17.9608 4.30109 17.8752 4.5 17.8752H19.5C19.6989 17.8752 19.8897 17.9608 20.0303 18.1132C20.171 18.2656 20.25 18.4723 20.25 18.6878C20.25 18.9033 20.171 19.11 20.0303 19.2623C19.8897 19.4147 19.6989 19.5003 19.5 19.5003H4.5C4.30109 19.5003 4.11032 19.4147 3.96967 19.2623C3.82902 19.11 3.75 18.9033 3.75 18.6878ZM3.75 12.1874C3.75 11.972 3.82902 11.7653 3.96967 11.6129C4.11032 11.4605 4.30109 11.3749 4.5 11.3749H19.5C19.6989 11.3749 19.8897 11.4605 20.0303 11.6129C20.171 11.7653 20.25 11.972 20.25 12.1874C20.25 12.4029 20.171 12.6096 20.0303 12.762C19.8897 12.9144 19.6989 13 19.5 13H4.5C4.30109 13 4.11032 12.9144 3.96967 12.762C3.82902 12.6096 3.75 12.4029 3.75 12.1874ZM3.75 5.68711C3.75 5.47162 3.82902 5.26494 3.96967 5.11256C4.11032 4.96018 4.30109 4.87457 4.5 4.87457H19.5C19.6989 4.87457 19.8897 4.96018 20.0303 5.11256C20.171 5.26494 20.25 5.47162 20.25 5.68711C20.25 5.90261 20.171 6.10929 20.0303 6.26167C19.8897 6.41405 19.6989 6.49966 19.5 6.49966H4.5C4.30109 6.49966 4.11032 6.41405 3.96967 6.26167C3.82902 6.10929 3.75 5.90261 3.75 5.68711Z" fill="#333333"/>
</svg>
